{
  "asset": {
    "generator": "Khronos glTF Blender I/O v3.3.32",
    "version": "2.0"
  },
  "scene": 0,
  "scenes": [
    {
      "extras": {
        "dynamic_sky_name": "Dynamic_1"
      },
      "name": "Scene",
      "nodes": [0]
    }
  ],
  "nodes": [
    {
      "extras": {
        "ant_landscape": {}
      },
      "mesh": 0,
      "name": "Sphere.003"
    }
  ],
  "materials": [
    {
      "doubleSided": true,
      "name": "Root",
      "pbrMetallicRoughness": {
        "baseColorTexture": {
          "index": 0
        },
        "metallicFactor": 0,
        "roughnessFactor": 0.5
      }
    },
    {
      "doubleSided": true,
      "name": "Bush",
      "pbrMetallicRoughness": {
        "baseColorTexture": {
          "index": 1
        },
        "metallicFactor": 0,
        "roughnessFactor": 0.5
      }
    }
  ],
  "meshes": [
    {
      "name": "Sphere.051",
      "primitives": [
        {
          "attributes": {
            "POSITION": 0,
            "NORMAL": 1,
            "TEXCOORD_0": 2
          },
          "indices": 3,
          "material": 0
        },
        {
          "attributes": {
            "POSITION": 0,
            "NORMAL": 1,
            "TEXCOORD_0": 2
          },
          "indices": 7,
          "material": 1
        }
      ]
    }
  ],
  "textures": [
    {
      "sampler": 0,
      "source": 0
    },
    {
      "sampler": 0,
      "source": 1
    }
  ],
  "images": [
    {
      "mimeType": "image/png",
      "name": "Root_Color",
      "uri": "tex/Root_Color.png"
    },
    {
      "mimeType": "image/png",
      "name": "Leaves_Color",
      "uri": "tex/Leaves_Color.png"
    }
  ],
  "accessors": [
    {
      "bufferView": 0,
      "componentType": 5126,
      "count": 8312,
      "max": [-1.1081867218017578, 0.4628525972366333, -0.5257325172424316],
      "min": [-1.4403877258300781, -0.027249693870544434, -0.7078039646148682],
      "type": "VEC3"
    },
    {
      "bufferView": 1,
      "componentType": 5126,
      "count": 8312,
      "type": "VEC3"
    },
    {
      "bufferView": 2,
      "componentType": 5126,
      "count": 8312,
      "type": "VEC2"
    },
    {
      "bufferView": 3,
      "componentType": 5123,
      "count": 49860,
      "type": "SCALAR"
    },
    {
      "bufferView": 4,
      "componentType": 5126,
      "count": 1134,
      "max": [-1.0299224853515625, 0.5455065965652466, -0.47559502720832825],
      "min": [-1.5219974517822266, 0.2618480920791626, -0.8052787780761719],
      "type": "VEC3"
    },
    {
      "bufferView": 5,
      "componentType": 5126,
      "count": 1134,
      "type": "VEC3"
    },
    {
      "bufferView": 6,
      "componentType": 5126,
      "count": 1134,
      "type": "VEC2"
    },
    {
      "bufferView": 7,
      "componentType": 5123,
      "count": 1170,
      "type": "SCALAR"
    }
  ],
  "bufferViews": [
    {
      "buffer": 0,
      "byteLength": 99744,
      "byteOffset": 0,
      "target": 34962
    },
    {
      "buffer": 0,
      "byteLength": 99744,
      "byteOffset": 99744,
      "target": 34962
    },
    {
      "buffer": 0,
      "byteLength": 66496,
      "byteOffset": 199488,
      "target": 34962
    },
    {
      "buffer": 0,
      "byteLength": 99720,
      "byteOffset": 265984,
      "target": 34963
    },
    {
      "buffer": 0,
      "byteLength": 13608,
      "byteOffset": 365704,
      "target": 34962
    },
    {
      "buffer": 0,
      "byteLength": 13608,
      "byteOffset": 379312,
      "target": 34962
    },
    {
      "buffer": 0,
      "byteLength": 9072,
      "byteOffset": 392920,
      "target": 34962
    },
    {
      "buffer": 0,
      "byteLength": 2340,
      "byteOffset": 401992,
      "target": 34963
    }
  ],
  "samplers": [
    {
      "magFilter": 9729,
      "minFilter": 9987
    }
  ],
  "buffers": [
    {
      "byteLength": 404332,
      "uri": "connected-trees.bin"
    }
  ]
}
