{
    "asset" : {
        "generator" : "Khronos glTF Blender I/O v3.3.32",
        "version" : "2.0"
    },
    "scene" : 0,
    "scenes" : [
        {
            "name" : "Scene",
            "nodes" : [
                0
            ]
        }
    ],
    "nodes" : [
        {
            "extras" : {
                "ant_landscape" : {}
            },
            "mesh" : 0,
            "name" : "Branch"
        }
    ],
    "meshes" : [
        {
            "name" : "Sphere.003",
            "primitives" : [
                {
                    "attributes" : {
                        "POSITION" : 0,
                        "NORMAL" : 1,
                        "TEXCOORD_0" : 2
                    },
                    "indices" : 3
                }
            ]
        }
    ],
    "accessors" : [
        {
            "bufferView" : 0,
            "componentType" : 5126,
            "count" : 9999,
            "max" : [
                0.9626436829566956,
                0.9841777086257935,
                0.786830723285675
            ],
            "min" : [
                -1.0825480222702026,
                -1.594433069229126,
                -0.7884935140609741
            ],
            "type" : "VEC3"
        },
        {
            "bufferView" : 1,
            "componentType" : 5126,
            "count" : 9999,
            "type" : "VEC3"
        },
        {
            "bufferView" : 2,
            "componentType" : 5126,
            "count" : 9999,
            "type" : "VEC2"
        },
        {
            "bufferView" : 3,
            "componentType" : 5123,
            "count" : 54348,
            "type" : "SCALAR"
        }
    ],
    "bufferViews" : [
        {
            "buffer" : 0,
            "byteLength" : 119988,
            "byteOffset" : 0,
            "target" : 34962
        },
        {
            "buffer" : 0,
            "byteLength" : 119988,
            "byteOffset" : 119988,
            "target" : 34962
        },
        {
            "buffer" : 0,
            "byteLength" : 79992,
            "byteOffset" : 239976,
            "target" : 34962
        },
        {
            "buffer" : 0,
            "byteLength" : 108696,
            "byteOffset" : 319968,
            "target" : 34963
        }
    ],
    "buffers" : [
        {
            "byteLength" : 428664,
            "uri" : "data:application/octet-stream;base64,"
        }
    ]
}
